<svg xmlns="http://www.w3.org/2000/svg" xmlns:xlink="http://www.w3.org/1999/xlink" width="349" height="349" viewBox="0 0 349 349"><defs><clipPath id="a"><rect width="1000" height="348.147"/></clipPath><clipPath id="c"><rect width="349" height="349"/></clipPath></defs><g id="b" clip-path="url(#c)"><g clip-path="url(#a)"><g transform="translate(-0.5 -0.5)"><g transform="translate(0.5 0.5)"><path d="M.5,4.8V296.651a15.075,15.075,0,0,1,11.111-4.444c9.63,0,17.778,8.148,17.778,17.037a15.075,15.075,0,0,1-4.444,11.111H319.758a28.924,28.924,0,0,0,28.889-28.889V280.354c-8.148-1.481-14.815-8.148-14.815-17.037s5.926-15.556,14.815-17.037v-23.7a5.926,5.926,0,1,1,0-11.852V4.8Z" transform="translate(-0.5 27.052)" fill="#4e425b" fill-rule="evenodd"/><path d="M18.1,36.933A13.333,13.333,0,1,1,31.433,50.267C24.026,49.526,18.1,43.6,18.1,36.933Z" transform="translate(112.27 147.51)" fill="#c0b0d1" fill-rule="evenodd"/><circle cx="17.037" cy="17.037" r="17.037" transform="translate(139.259 273.332)" fill="#c0b0d1"/><path d="M27.1,39.326A6.373,6.373,0,0,1,33.026,33.4a5.842,5.842,0,0,1,5.926,5.926,6.373,6.373,0,0,1-5.926,5.926A6.373,6.373,0,0,1,27.1,39.326Z" transform="translate(169.936 210.303)" fill="#c0b0d1" fill-rule="evenodd"/><path d="M37.7,42.033A13.333,13.333,0,1,1,51.033,55.367C43.626,54.626,37.7,48.7,37.7,42.033Z" transform="translate(237.854 180.188)" fill="#c0b0d1" fill-rule="evenodd"/><path d="M43.2,42.426A6.373,6.373,0,0,1,49.126,36.5a6.373,6.373,0,0,1,5.926,5.926,5.842,5.842,0,0,1-5.926,5.926C45.422,48.352,43.2,46.13,43.2,42.426Z" transform="translate(273.095 230.166)" fill="#c0b0d1" fill-rule="evenodd"/><path d="M11.5,47.033a13.278,13.278,0,1,1,3.889,9.445A13.333,13.333,0,0,1,11.5,47.033Z" transform="translate(69.981 212.225)" fill="#c0b0d1" fill-rule="evenodd"/><path d="M16.6,57.752S21.785,45.9,28.452,45.9,40.3,57.752,40.3,57.752Z" transform="translate(102.659 290.395)" fill="#c0b0d1" fill-rule="evenodd"/><path d="M36.5,54.133a13.278,13.278,0,1,1,3.889,9.445A13.333,13.333,0,0,1,36.5,54.133Z" transform="translate(230.166 257.717)" fill="#c0b0d1" fill-rule="evenodd"/><path d="M30.589.9A28.924,28.924,0,0,0,1.7,29.789V247.566a43.316,43.316,0,0,0,43.7,43.7,43.783,43.783,0,0,0,43.7-43.7V149.048A28.924,28.924,0,0,1,118,120.159c15.556,0,28.889,13.333,28.889,28.889v54.815a28.889,28.889,0,1,0,57.778,0V163.122a14.815,14.815,0,1,1,29.63,0v84.444a14.815,14.815,0,1,0,29.63,0v-69.63a28.924,28.924,0,0,1,28.889-28.889c15.556,0,28.889,13.333,28.889,28.889v11.852A14.858,14.858,0,0,0,336.513,204.6c2.222,0,3.7-.741,5.926-1.481V37.937C337.254,32.752,329.847.9,321.7.9Z" transform="translate(7.189 2.063)" fill="#32283d" fill-rule="evenodd"/><path d="M29.389.5A28.924,28.924,0,0,0,.5,29.389V247.166a43.316,43.316,0,0,0,43.7,43.7,43.316,43.316,0,0,0,43.7-43.7V148.648a28.889,28.889,0,1,1,57.778,0v54.815a28.924,28.924,0,0,0,28.889,28.889c15.555,0,28.889-13.333,28.889-28.889V162.722a14.815,14.815,0,1,1,29.63,0v84.444a14.815,14.815,0,0,0,29.63,0v-69.63a28.889,28.889,0,0,1,57.778,0v11.852a14.815,14.815,0,1,0,29.63,0v-160A28.924,28.924,0,0,0,321.24.5Z" transform="translate(-0.5 -0.5)" fill="#9a16ff" fill-rule="evenodd"/><path d="M16.2,26.078A17.548,17.548,0,0,1,33.978,8.3c9.63,0,17.037,8.148,17.037,17.778A17.23,17.23,0,0,1,33.978,43.115C23.607,43.115,16.2,35.707,16.2,26.078Z" transform="translate(100.096 49.478)" fill="#ebe9ed" fill-rule="evenodd"/><circle cx="5.926" cy="5.926" r="5.926" transform="translate(174.073 28.889)" fill="#fff"/><path d="M34.6.7H60.526S54.6,14.033,47.193,14.033C40.526,14.033,34.6.7,34.6.7Z" transform="translate(217.992 0.781)" fill="#b448ff" fill-rule="evenodd"/><path d="M40.1,13.426A5.842,5.842,0,0,1,46.026,7.5c3.7,0,5.926,2.222,5.926,5.926a5.842,5.842,0,0,1-5.926,5.926C42.322,19.352,40.1,17.13,40.1,13.426Z" transform="translate(253.232 44.352)" fill="#b448ff" fill-rule="evenodd"/><path d="M8.3,18.133A13.333,13.333,0,1,1,21.633,31.467C14.226,30.726,8.3,24.8,8.3,18.133Z" transform="translate(49.478 27.052)" fill="#b448ff" fill-rule="evenodd"/><circle cx="13.333" cy="13.333" r="13.333" transform="translate(243.703 83.703)" fill="#ebe9ed"/></g></g></g></g></svg>