<svg xmlns="http://www.w3.org/2000/svg" width="999.998" height="347.407" viewBox="0 0 999.998 347.407">
  <g id="Group_1" data-name="Group 1" transform="translate(0.002 0)">
    <g id="Group_2" data-name="Group 2">
      <path id="Path_15" data-name="Path 15" d="M.5,4.8V296.651a15.173,15.173,0,0,1,11.158-4.444c9.671,0,17.854,8.148,17.854,17.037a15.041,15.041,0,0,1-4.463,11.111H321.116a28.986,28.986,0,0,0,29.012-28.889V280.354c-8.183-1.481-14.878-8.148-14.878-17.037s5.951-15.556,14.878-17.037v-23.7a5.926,5.926,0,1,1,0-11.852V4.8Z" transform="translate(-0.5 27.052)" fill="#4e425b" fill-rule="evenodd"/>
      <path id="Path_16" data-name="Path 16" d="M18.1,36.933A13.333,13.333,0,1,1,31.433,50.267C24.026,49.526,18.1,43.6,18.1,36.933Z" transform="translate(112.27 147.51)" fill="#c0b0d1" fill-rule="evenodd"/>
      <circle id="Ellipse_4" data-name="Ellipse 4" cx="17.037" cy="17.037" r="17.037" transform="translate(139.259 273.332)" fill="#c0b0d1"/>
      <path id="Path_17" data-name="Path 17" d="M27.1,39.326A6.373,6.373,0,0,1,33.026,33.4a5.842,5.842,0,0,1,5.926,5.926,6.373,6.373,0,0,1-5.926,5.926A6.373,6.373,0,0,1,27.1,39.326Z" transform="translate(169.936 210.303)" fill="#c0b0d1" fill-rule="evenodd"/>
      <path id="Path_18" data-name="Path 18" d="M37.7,42.033A13.333,13.333,0,1,1,51.033,55.367C43.626,54.626,37.7,48.7,37.7,42.033Z" transform="translate(237.854 180.188)" fill="#c0b0d1" fill-rule="evenodd"/>
      <path id="Path_19" data-name="Path 19" d="M43.2,42.426A6.373,6.373,0,0,1,49.126,36.5a6.373,6.373,0,0,1,5.926,5.926,5.842,5.842,0,0,1-5.926,5.926C45.422,48.352,43.2,46.13,43.2,42.426Z" transform="translate(273.095 230.166)" fill="#c0b0d1" fill-rule="evenodd"/>
      <path id="Path_20" data-name="Path 20" d="M11.5,47.033a13.278,13.278,0,1,1,3.889,9.445A13.333,13.333,0,0,1,11.5,47.033Z" transform="translate(69.981 212.225)" fill="#c0b0d1" fill-rule="evenodd"/>
      <path id="Path_21" data-name="Path 21" d="M16.6,57.752S21.785,45.9,28.452,45.9,40.3,57.752,40.3,57.752Z" transform="translate(102.659 289.655)" fill="#c0b0d1" fill-rule="evenodd"/>
      <path id="Path_22" data-name="Path 22" d="M36.5,54.133a13.278,13.278,0,1,1,3.889,9.445A13.333,13.333,0,0,1,36.5,54.133Z" transform="translate(230.166 257.717)" fill="#c0b0d1" fill-rule="evenodd"/>
      <path id="Path_23" data-name="Path 23" d="M30.589.9A28.924,28.924,0,0,0,1.7,29.789V247.566a43.316,43.316,0,0,0,43.7,43.7,43.783,43.783,0,0,0,43.7-43.7V149.048A28.924,28.924,0,0,1,118,120.159c15.556,0,28.889,13.333,28.889,28.889v54.815a28.889,28.889,0,1,0,57.778,0V163.122a14.815,14.815,0,1,1,29.63,0v84.444a14.815,14.815,0,1,0,29.63,0v-69.63a28.924,28.924,0,0,1,28.889-28.889c15.556,0,28.889,13.333,28.889,28.889v11.852A14.858,14.858,0,0,0,336.513,204.6c2.222,0,3.7-.741,5.926-1.481V37.937C337.254,32.752,329.847.9,321.7.9Z" transform="translate(7.189 2.063)" fill="#32283d" fill-rule="evenodd"/>
      <path id="Path_24" data-name="Path 24" d="M29.389.5A28.924,28.924,0,0,0,.5,29.389V247.166a43.316,43.316,0,0,0,43.7,43.7,43.316,43.316,0,0,0,43.7-43.7V148.648a28.889,28.889,0,1,1,57.778,0v54.815a28.924,28.924,0,0,0,28.889,28.889c15.555,0,28.889-13.333,28.889-28.889V162.722a14.815,14.815,0,1,1,29.63,0v84.444a14.815,14.815,0,0,0,29.63,0v-69.63a28.889,28.889,0,0,1,57.778,0v11.852a14.815,14.815,0,1,0,29.63,0v-160A28.924,28.924,0,0,0,321.24.5Z" transform="translate(-0.5 -0.5)" fill="#9a16ff" fill-rule="evenodd"/>
      <path id="Path_25" data-name="Path 25" d="M16.2,26.078A17.548,17.548,0,0,1,33.978,8.3c9.63,0,17.037,8.148,17.037,17.778A17.23,17.23,0,0,1,33.978,43.115C23.607,43.115,16.2,35.707,16.2,26.078Z" transform="translate(100.096 48.478)" fill="#ebe9ed" fill-rule="evenodd"/>
      <circle id="Ellipse_5" data-name="Ellipse 5" cx="5.926" cy="5.926" r="5.926" transform="translate(174.073 28.889)" fill="#fff"/>
      <path id="Path_26" data-name="Path 26" d="M34.6.7H60.526S54.6,14.033,47.193,14.033C40.526,14.033,34.6.7,34.6.7Z" transform="translate(217.992 -0.7)" fill="#b448ff" fill-rule="evenodd"/>
      <path id="Path_27" data-name="Path 27" d="M40.1,13.426A5.842,5.842,0,0,1,46.026,7.5c3.7,0,5.926,2.222,5.926,5.926a5.842,5.842,0,0,1-5.926,5.926C42.322,19.352,40.1,17.13,40.1,13.426Z" transform="translate(253.232 44.352)" fill="#b448ff" fill-rule="evenodd"/>
      <path id="Path_28" data-name="Path 28" d="M8.3,18.133A13.333,13.333,0,1,1,21.633,31.467C14.226,30.726,8.3,24.8,8.3,18.133Z" transform="translate(49.478 27.052)" fill="#b448ff" fill-rule="evenodd"/>
      <circle id="Ellipse_6" data-name="Ellipse 6" cx="13.333" cy="13.333" r="13.333" transform="translate(243.703 83.703)" fill="#ebe9ed"/>
    </g>
    <g id="Group_3" data-name="Group 3" transform="translate(407.406 40)">
      <path id="Path_29" data-name="Path 29" d="M117.722,53.307H86.611V37.752h31.111ZM86.611,99.974V84.418h31.111V99.974ZM55.5,5.9V131.085h94.074V91.826l-23.7-22.963,23.7-23.7V5.9Z" transform="translate(-55.5 -5.9)" fill="#fff" fill-rule="evenodd"/>
      <path id="Path_30" data-name="Path 30" d="M166.374,37.011V5.9H72.3V131.085h94.074V99.974H103.411V84.418H142.67V53.307H103.411v-16.3Z" transform="translate(52.144 -5.9)" fill="#fff" fill-rule="evenodd"/>
      <path id="Path_31" data-name="Path 31" d="M152.063,68.863H120.952V37.752h31.111ZM89.1,5.9V131.085h31.111V99.974h31.111v31.111h31.111V5.9Z" transform="translate(159.788 -5.9)" fill="#fff" fill-rule="evenodd"/>
      <path id="Path_32" data-name="Path 32" d="M200.074,37.011V5.9H106V84.418h62.222V99.974H106v31.111h94.074V53.307H137.111v-16.3Z" transform="translate(268.073 -5.9)" fill="#fff" fill-rule="evenodd"/>
      <path id="Path_33" data-name="Path 33" d="M122.6,5.9V37.011h31.852v94.074h31.111V37.011h31.111V5.9Z" transform="translate(374.435 -5.9)" fill="#fff" fill-rule="evenodd"/>
    </g>
    <g id="Group_4" data-name="Group 4" transform="translate(407.406 193.333)">
      <path id="Path_34" data-name="Path 34" d="M117.722,74.007H86.611V58.452h31.111ZM86.611,120.674V105.118h31.111v15.555ZM55.5,27.341V152.525h94.074V113.266l-23.7-23.7,23.7-23.7V26.6H55.5Z" transform="translate(-55.5 -26.6)" fill="#b448ff" fill-rule="evenodd"/>
      <path id="Path_35" data-name="Path 35" d="M135.263,104.477v15.555H103.411V26.7H72.3V151.885h94.074V104.477Z" transform="translate(52.144 -25.959)" fill="#b448ff" fill-rule="evenodd"/>
      <path id="Path_36" data-name="Path 36" d="M152.063,120.033H120.952V57.07h31.111ZM89.1,26.7V151.885h94.074V26.7Z" transform="translate(159.788 -25.959)" fill="#b448ff" fill-rule="evenodd"/>
      <path id="Path_37" data-name="Path 37" d="M106,26.7V151.885h94.074V104.477H168.222v15.555H137.111V57.811h31.111V73.367h31.852V26.7Z" transform="translate(268.073 -25.959)" fill="#b448ff" fill-rule="evenodd"/>
      <path id="Path_38" data-name="Path 38" d="M216.874,57.811V26.7H185.763V44.478L153.911,76.329V26.7H122.8V151.885h31.111V120.033l9.63-8.889,22.222,22.222v18.518h31.111V120.033L185.763,88.922Z" transform="translate(375.716 -25.959)" fill="#b448ff" fill-rule="evenodd"/>
    </g>
  </g>
</svg>