<?xml version="1.0" encoding="utf-8"?>
<!-- Generator: Adobe Illustrator 22.0.1, SVG Export Plug-In . SVG Version: 6.00 Build 0)  -->
<svg version="1.1" id="Vrstva_1" xmlns="http://www.w3.org/2000/svg" xmlns:xlink="http://www.w3.org/1999/xlink" x="0px" y="0px"
	 viewBox="0 0 135 47" style="enable-background:new 0 0 135 47;" xml:space="preserve">
<style type="text/css">
	.st0{fill-rule:evenodd;clip-rule:evenodd;fill:#735645;}
	.st1{fill-rule:evenodd;clip-rule:evenodd;fill:#7E5F4B;}
	.st2{fill-rule:evenodd;clip-rule:evenodd;fill:#5F4738;}
	.st3{fill-rule:evenodd;clip-rule:evenodd;fill:#D98E04;}
	.st4{fill-rule:evenodd;clip-rule:evenodd;fill:#EBE9ED;}
	.st5{fill-rule:evenodd;clip-rule:evenodd;fill:#FFFFFF;}
	.st6{fill-rule:evenodd;clip-rule:evenodd;fill:#E100A9;}
</style>
<g>
	<g>
		<path class="st0" d="M0.5,4.8v38.8c0,0.2,0,0.4,0,0.6c0.4-0.4,0.9-0.6,1.5-0.6c1.3,0,2.4,1.1,2.4,2.3c0,0.6-0.2,1.1-0.6,1.5
			c0.2,0,0.4,0,0.6,0h39.2c2.2,0,3.9-1.8,3.9-3.9V42c-1.1-0.2-2-1.1-2-2.3c0-1.2,0.8-2.1,2-2.3v-3.2c-0.4,0-0.8-0.3-0.8-0.8
			s0.4-0.8,0.8-0.8V4.8H0.5z"/>
		<path class="st1" d="M18.1,25.4c0-1,0.8-1.8,1.8-1.8c1,0,1.8,0.8,1.8,1.8c0,1-0.8,1.8-1.8,1.8C18.9,27.1,18.1,26.3,18.1,25.4z"/>
		<circle class="st1" cx="21.6" cy="39.7" r="2.3"/>
		<path class="st1" d="M27.1,34.2c0-0.4,0.4-0.8,0.8-0.8c0.4,0,0.8,0.3,0.8,0.8c0,0.4-0.4,0.8-0.8,0.8C27.5,35,27.1,34.6,27.1,34.2z
			"/>
		<path class="st1" d="M37.7,30.5c0-1,0.8-1.8,1.8-1.8c1,0,1.8,0.8,1.8,1.8c0,1-0.8,1.8-1.8,1.8C38.5,32.2,37.7,31.4,37.7,30.5z"/>
		<path class="st1" d="M43.2,37.3c0-0.4,0.4-0.8,0.8-0.8s0.8,0.4,0.8,0.8c0,0.4-0.3,0.8-0.8,0.8S43.2,37.8,43.2,37.3z"/>
		<path class="st1" d="M11.5,35.5c0-1,0.8-1.8,1.8-1.8c1,0,1.8,0.8,1.8,1.8c0,1-0.8,1.8-1.8,1.8C12.3,37.3,11.5,36.5,11.5,35.5z"/>
		<path class="st1" d="M16.6,47.5c0,0,0.7-1.6,1.6-1.6c0.9,0,1.6,1.6,1.6,1.6H16.6z"/>
		<path class="st1" d="M36.5,42.6c0-1,0.8-1.8,1.8-1.8c1,0,1.8,0.8,1.8,1.8c0,1-0.8,1.8-1.8,1.8C37.3,44.4,36.5,43.6,36.5,42.6z"/>
		<path class="st2" d="M5.6,0.9c-2.2,0-3.9,1.8-3.9,3.9v29.4c0,3.3,2.6,5.9,5.9,5.9c3.2,0,5.9-2.6,5.9-5.9V20.9
			c0-2.2,1.8-3.9,3.9-3.9s3.9,1.8,3.9,3.9v7.4c0,2.2,1.8,3.9,3.9,3.9c2.2,0,3.9-1.8,3.9-3.9v-5.5c0-1.1,0.9-2,2-2c1.1,0,2,0.9,2,2
			v11.4c0,1.1,0.9,2,2,2c1.1,0,2-0.9,2-2v-9.4c0-2.2,1.8-3.9,3.9-3.9s3.9,1.8,3.9,3.9v1.6c0,1.1,0.9,2,2,2c0.3,0,0.5-0.1,0.8-0.2
			V5.9c-0.7-0.7-1.7-5-2.8-5H5.6z"/>
		<path class="st3" d="M4.4,0.5c-2.2,0-3.9,1.8-3.9,3.9v29.4c0,3.3,2.6,5.9,5.9,5.9c3.3,0,5.9-2.6,5.9-5.9V20.5
			c0-2.2,1.8-3.9,3.9-3.9c2.2,0,3.9,1.8,3.9,3.9v7.4c0,2.2,1.8,3.9,3.9,3.9s3.9-1.8,3.9-3.9v-5.5c0-1.1,0.9-2,2-2s2,0.9,2,2v11.4
			c0,1.1,0.9,2,2,2c1.1,0,2-0.9,2-2v-9.4c0-2.2,1.8-3.9,3.9-3.9c2.2,0,3.9,1.8,3.9,3.9V26c0,1.1,0.9,2,2,2c1.1,0,2-0.9,2-2V4.4
			c0-2.2-1.8-3.9-3.9-3.9H4.4z"/>
		<path class="st4" d="M16.2,10.7c0-1.3,1-2.4,2.4-2.4c1.3,0,2.3,1.1,2.3,2.4c0,1.3-1.1,2.3-2.3,2.3C17.2,13,16.2,12,16.2,10.7z"/>
		<circle class="st5" cx="24.8" cy="5.2" r="0.8"/>
		<path class="st6" d="M34.6,0.7h3.5c0,0-0.8,1.8-1.8,1.8C35.4,2.5,34.6,0.7,34.6,0.7z"/>
		<path class="st6" d="M40.1,8.3c0-0.4,0.3-0.8,0.8-0.8s0.8,0.3,0.8,0.8c0,0.4-0.3,0.8-0.8,0.8S40.1,8.8,40.1,8.3z"/>
		<path class="st6" d="M8.3,6.6c0-1,0.8-1.8,1.8-1.8c1,0,1.8,0.8,1.8,1.8s-0.8,1.8-1.8,1.8C9.1,8.3,8.3,7.5,8.3,6.6z"/>
		<circle class="st4" cx="35.2" cy="13.6" r="1.8"/>
	</g>
	<g>
		<path class="st5" d="M63.9,12.3h-4.2v-2.1h4.2V12.3z M59.7,18.6v-2.1h4.2v2.1H59.7z M55.5,5.9v16.9h12.7v-5.3L65,14.4l3.2-3.2V5.9
			H55.5z"/>
		<polygon class="st5" points="85,10.1 85,5.9 72.3,5.9 72.3,22.8 85,22.8 85,18.6 76.5,18.6 76.5,16.5 81.8,16.5 81.8,12.3 
			76.5,12.3 76.5,10.1 		"/>
		<path class="st5" d="M97.6,14.4h-4.2v-4.2h4.2V14.4z M89.1,5.9v16.9h4.2v-4.2h4.2v4.2h4.2V5.9H89.1z"/>
		<polygon class="st5" points="118.7,10.1 118.7,5.9 106,5.9 106,16.5 114.4,16.5 114.4,18.6 106,18.6 106,22.8 118.7,22.8 
			118.7,12.3 110.2,12.3 110.2,10.1 		"/>
		<polygon class="st5" points="122.6,5.9 122.6,10.1 126.9,10.1 126.9,22.8 131.1,22.8 131.1,10.1 135.3,10.1 135.3,5.9 		"/>
	</g>
	<g>
		<path class="st3" d="M63.9,33h-4.2v-2.1h4.2V33z M59.7,39.3v-2.1h4.2v2.1H59.7z M55.5,26.7v16.9h12.7v-5.3L65,35.1l3.2-3.2v-5.3
			H55.5z"/>
		<polygon class="st3" points="80.8,37.2 80.8,39.3 76.5,39.3 76.5,26.7 72.3,26.7 72.3,43.6 85,43.6 85,37.2 		"/>
		<path class="st3" d="M97.6,39.3h-4.2v-8.5h4.2V39.3z M89.1,26.7v16.9h12.7V26.7H89.1z"/>
		<polygon class="st3" points="106,26.7 106,43.6 118.7,43.6 118.7,37.2 114.4,37.2 114.4,39.3 110.2,39.3 110.2,30.9 114.4,30.9 
			114.4,33 118.7,33 118.7,26.7 		"/>
		<polygon class="st3" points="135.5,30.9 135.5,26.7 131.3,26.7 131.3,29.1 127,33.4 127,26.7 122.8,26.7 122.8,43.6 127,43.6 
			127,39.3 128.3,38.1 131.3,41.1 131.3,43.6 135.5,43.6 135.5,39.3 131.3,35.1 		"/>
	</g>
</g>
</svg>
